<?xml version="1.0" encoding="UTF-8" standalone="no"?>
<!-- Created with Inkscape (http://www.inkscape.org/) -->

<svg
   xmlns:dc="http://purl.org/dc/elements/1.1/"
   xmlns:cc="http://creativecommons.org/ns#"
   xmlns:rdf="http://www.w3.org/1999/02/22-rdf-syntax-ns#"
   xmlns:svg="http://www.w3.org/2000/svg"
   xmlns="http://www.w3.org/2000/svg"
   xmlns:sodipodi="http://sodipodi.sourceforge.net/DTD/sodipodi-0.dtd"
   xmlns:inkscape="http://www.inkscape.org/namespaces/inkscape"
   width="33"
   height="24"
   viewBox="0 0 8.7312499 6.3500002"
   version="1.1"
   id="svg8"
   inkscape:version="0.92.2 5c3e80d, 2017-08-06"
   sodipodi:docname="privateFlag.svg">
  <defs
     id="defs2" />
  <sodipodi:namedview
     id="base"
     pagecolor="#ffffff"
     bordercolor="#666666"
     borderopacity="1.0"
     inkscape:pageopacity="0.0"
     inkscape:pageshadow="2"
     inkscape:zoom="8.8380291"
     inkscape:cx="48.83842"
     inkscape:cy="26.97151"
     inkscape:document-units="mm"
     inkscape:current-layer="layer1"
     showgrid="false"
     inkscape:window-width="1920"
     inkscape:window-height="1016"
     inkscape:window-x="0"
     inkscape:window-y="27"
     inkscape:window-maximized="1"
     units="px" />
  <metadata
     id="metadata5">
    <rdf:RDF>
      <cc:Work
         rdf:about="">
        <dc:format>image/svg+xml</dc:format>
        <dc:type
           rdf:resource="http://purl.org/dc/dcmitype/StillImage" />
        <dc:title></dc:title>
      </cc:Work>
    </rdf:RDF>
  </metadata>
  <g
     inkscape:label="Calque 1"
     inkscape:groupmode="layer"
     id="layer1"
     transform="translate(0,-290.64997)">
    <flowRoot
       xml:space="preserve"
       id="flowRoot4557"
       style="font-style:normal;font-weight:normal;font-size:40px;line-height:1.25;font-family:sans-serif;letter-spacing:0px;word-spacing:0px;fill:#000000;fill-opacity:1;stroke:none"
       transform="scale(0.26458333)"><flowRegion
         id="flowRegion4559"><rect
           id="rect4561"
           width="182.74944"
           height="55.879704"
           x="-942.25726"
           y="809.7644" /></flowRegion><flowPara
         id="flowPara4563" /></flowRoot>    <flowRoot
       xml:space="preserve"
       id="flowRoot4565"
       style="font-style:normal;font-weight:normal;font-size:40px;line-height:1.25;font-family:sans-serif;letter-spacing:0px;word-spacing:0px;fill:#000000;fill-opacity:1;stroke:none"><flowRegion
         id="flowRegion4567"><rect
           id="rect4569"
           width="173.62622"
           height="51.032993"
           x="-937.69562"
           y="810.61969" /></flowRegion><flowPara
         id="flowPara4571" /></flowRoot>    <flowRoot
       xml:space="preserve"
       id="flowRoot4581"
       style="font-style:normal;font-weight:normal;font-size:40px;line-height:1.25;font-family:sans-serif;letter-spacing:0px;word-spacing:0px;fill:#000000;fill-opacity:1;stroke:none"
       transform="scale(0.26458333)"><flowRegion
         id="flowRegion4583"><rect
           id="rect4585"
           width="179.04314"
           height="41.339577"
           x="-939.69135"
           y="816.60681" /></flowRegion><flowPara
         id="flowPara4587">Qu</flowPara></flowRoot>    <path
       style="opacity:1;fill:#000000;fill-opacity:1;stroke:none;stroke-width:0.36568192;stroke-linejoin:round;stroke-miterlimit:4;stroke-dasharray:none;stroke-opacity:1;paint-order:stroke fill markers"
       d="m 1.5895671,293.7516 v 3.24476 h 5.2916665 v -3.24476 z m 2.6587525,0.60255 a 0.5016542,0.48668574 0 0 1 0.03359,10e-4 0.5016542,0.48668574 0 0 1 0.4728392,0.5116 l -5.291e-4,0.006 a 0.5016542,0.48668574 0 0 1 -0.368453,0.43666 l 0.053743,0.24908 0.1772502,0.82528 -0.4242636,-0.003 -0.4237467,-0.003 0.2464966,-0.82217 0.076481,-0.25476 A 0.5016542,0.48668574 0 0 1 3.7532593,294.812 0.5016542,0.48668574 0 0 1 4.2483196,294.35415 Z"
       id="rect876"
       inkscape:connector-curvature="0" />
    <path
       style="opacity:1;fill:#000000;fill-opacity:1;stroke:none;stroke-width:0.54196137;stroke-linejoin:round;stroke-miterlimit:4;stroke-dasharray:none;stroke-opacity:1;paint-order:stroke fill markers"
       d="m 4.1733887,290.77762 a 2.3443772,3.0360741 0 0 0 -1.1162109,0.40824 2.3443772,3.0360741 0 0 0 -1.1684042,2.6355 l 0.5648235,-0.002 a 1.7350831,2.4774398 0 0 1 0.8640299,-2.13837 1.7350831,2.4774398 0 0 1 1.736845,-0.003 1.7350831,2.4774398 0 0 1 0.8686807,2.13527 l 0.6542236,5.3e-4 a 2.3443772,3.0360741 0 0 0 -1.1735718,-2.63138 2.3443772,3.0360741 0 0 0 -1.2304158,-0.40463 z"
       id="path878"
       inkscape:connector-curvature="0" />
  </g>
</svg>
