<?xml version="1.0" encoding="UTF-8" standalone="no"?>
<!-- Created with Inkscape (http://www.inkscape.org/) -->

<svg
   xmlns:dc="http://purl.org/dc/elements/1.1/"
   xmlns:cc="http://creativecommons.org/ns#"
   xmlns:rdf="http://www.w3.org/1999/02/22-rdf-syntax-ns#"
   xmlns:svg="http://www.w3.org/2000/svg"
   xmlns="http://www.w3.org/2000/svg"
   xmlns:sodipodi="http://sodipodi.sourceforge.net/DTD/sodipodi-0.dtd"
   xmlns:inkscape="http://www.inkscape.org/namespaces/inkscape"
   width="33"
   height="24"
   viewBox="0 0 8.7312498 6.3500002"
   version="1.1"
   id="svg8"
   inkscape:version="0.92.2 5c3e80d, 2017-08-06"
   sodipodi:docname="publicFlag.svg"
   inkscape:export-filename="/home/julien/Documents/Universite/ConpaProject/git/conpa/public/img/gamerModule/publicFlag.png"
   inkscape:export-xdpi="96"
   inkscape:export-ydpi="96">
  <defs
     id="defs2" />
  <sodipodi:namedview
     id="base"
     pagecolor="#ffffff"
     bordercolor="#666666"
     borderopacity="1.0"
     inkscape:pageopacity="0.0"
     inkscape:pageshadow="2"
     inkscape:zoom="8.8380291"
     inkscape:cx="45.616105"
     inkscape:cy="17.919719"
     inkscape:document-units="mm"
     inkscape:current-layer="layer1"
     showgrid="false"
     inkscape:window-width="1920"
     inkscape:window-height="1080"
     inkscape:window-x="0"
     inkscape:window-y="0"
     inkscape:window-maximized="1"
     units="px" />
  <metadata
     id="metadata5">
    <rdf:RDF>
      <cc:Work
         rdf:about="">
        <dc:format>image/svg+xml</dc:format>
        <dc:type
           rdf:resource="http://purl.org/dc/dcmitype/StillImage" />
        <dc:title></dc:title>
      </cc:Work>
    </rdf:RDF>
  </metadata>
  <g
     inkscape:label="Calque 1"
     inkscape:groupmode="layer"
     id="layer1"
     transform="translate(0,-290.64998)">
    <flowRoot
       xml:space="preserve"
       id="flowRoot4557"
       style="font-style:normal;font-weight:normal;font-size:40px;line-height:1.25;font-family:sans-serif;letter-spacing:0px;word-spacing:0px;fill:#000000;fill-opacity:1;stroke:none"
       transform="scale(0.26458333)"><flowRegion
         id="flowRegion4559"><rect
           id="rect4561"
           width="182.74944"
           height="55.879704"
           x="-942.25726"
           y="809.7644" /></flowRegion><flowPara
         id="flowPara4563" /></flowRoot>    <flowRoot
       xml:space="preserve"
       id="flowRoot4565"
       style="font-style:normal;font-weight:normal;font-size:40px;line-height:1.25;font-family:sans-serif;letter-spacing:0px;word-spacing:0px;fill:#000000;fill-opacity:1;stroke:none"><flowRegion
         id="flowRegion4567"><rect
           id="rect4569"
           width="173.62622"
           height="51.032993"
           x="-937.69562"
           y="810.61969" /></flowRegion><flowPara
         id="flowPara4571" /></flowRoot>    <flowRoot
       xml:space="preserve"
       id="flowRoot4581"
       style="font-style:normal;font-weight:normal;font-size:40px;line-height:1.25;font-family:sans-serif;letter-spacing:0px;word-spacing:0px;fill:#000000;fill-opacity:1;stroke:none"
       transform="scale(0.26458333)"><flowRegion
         id="flowRegion4583"><rect
           id="rect4585"
           width="179.04314"
           height="41.339577"
           x="-939.69135"
           y="816.60681" /></flowRegion><flowPara
         id="flowPara4587">Qu</flowPara></flowRoot>    <path
       style="opacity:1;fill:#000000;fill-opacity:1;stroke:none;stroke-width:1.38210487;stroke-linejoin:round;stroke-miterlimit:4;stroke-dasharray:none;stroke-opacity:1;paint-order:stroke fill markers"
       d="M 0 11.736328 L 0 24 L 20 24 L 20 11.736328 L 0 11.736328 z M 10.048828 14.013672 A 1.8960159 1.8394422 0 0 1 10.177734 14.017578 A 1.8960159 1.8394422 0 0 1 11.964844 15.951172 L 11.962891 15.974609 A 1.8960159 1.8394422 0 0 1 10.568359 17.625 L 10.771484 18.566406 L 11.441406 21.685547 L 9.8398438 21.673828 L 8.2363281 21.662109 L 9.1699219 18.554688 L 9.4589844 17.59375 A 1.8960159 1.8394422 0 0 1 8.1777344 15.744141 A 1.8960159 1.8394422 0 0 1 10.048828 14.013672 z "
       transform="matrix(0.26458333,0,0,0.26458333,0,290.64998)"
       id="rect876" />
    <path
       style="opacity:1;fill:#000000;fill-opacity:1;stroke:none;stroke-width:2.04835796;stroke-linejoin:round;stroke-miterlimit:4;stroke-dasharray:none;stroke-opacity:1;paint-order:stroke fill markers"
       d="M 23.767578 0.49609375 A 8.8606385 11.474926 0 0 0 19.546875 2.0390625 A 8.8606385 11.474926 0 0 0 15.130859 12 L 17.267578 11.992188 A 6.7840892 9.4728857 0 0 1 20.644531 3.8925781 A 6.7840892 9.4728857 0 0 1 27.435547 3.8789062 A 6.7840892 9.4728857 0 0 1 30.830078 11.970703 L 32.853516 11.970703 A 8.8606385 11.474926 0 0 0 28.416016 2.0253906 A 8.8606385 11.474926 0 0 0 23.767578 0.49609375 z "
       transform="matrix(0.26458333,0,0,0.26458333,0,290.64998)"
       id="path878" />
  </g>
</svg>
