<?xml version="1.0" encoding="UTF-8" standalone="no"?>
<!-- Created with Inkscape (http://www.inkscape.org/) -->

<svg
   xmlns:dc="http://purl.org/dc/elements/1.1/"
   xmlns:cc="http://creativecommons.org/ns#"
   xmlns:rdf="http://www.w3.org/1999/02/22-rdf-syntax-ns#"
   xmlns:svg="http://www.w3.org/2000/svg"
   xmlns="http://www.w3.org/2000/svg"
   xmlns:sodipodi="http://sodipodi.sourceforge.net/DTD/sodipodi-0.dtd"
   xmlns:inkscape="http://www.inkscape.org/namespaces/inkscape"
   width="95"
   height="30"
   viewBox="0 0 25.135416 7.9375002"
   version="1.1"
   id="svg8"
   inkscape:version="0.92.3 (2405546, 2018-03-11)"
   sodipodi:docname="public.svg">
  <defs
     id="defs2" />
  <sodipodi:namedview
     id="base"
     pagecolor="#ffffff"
     bordercolor="#666666"
     borderopacity="1.0"
     inkscape:pageopacity="0.0"
     inkscape:pageshadow="2"
     inkscape:zoom="8.8380291"
     inkscape:cx="71.640007"
     inkscape:cy="27.4241"
     inkscape:document-units="mm"
     inkscape:current-layer="layer1"
     showgrid="false"
     inkscape:window-width="1920"
     inkscape:window-height="1017"
     inkscape:window-x="-8"
     inkscape:window-y="-8"
     inkscape:window-maximized="1"
     units="px" />
  <metadata
     id="metadata5">
    <rdf:RDF>
      <cc:Work
         rdf:about="">
        <dc:format>image/svg+xml</dc:format>
        <dc:type
           rdf:resource="http://purl.org/dc/dcmitype/StillImage" />
        <dc:title></dc:title>
      </cc:Work>
    </rdf:RDF>
  </metadata>
  <g
     inkscape:label="Calque 1"
     inkscape:groupmode="layer"
     id="layer1"
     transform="translate(0,-289.06248)">
    <flowRoot
       xml:space="preserve"
       id="flowRoot4557"
       style="font-style:normal;font-weight:normal;font-size:40px;line-height:1.25;font-family:sans-serif;letter-spacing:0px;word-spacing:0px;fill:#000000;fill-opacity:1;stroke:none"
       transform="scale(0.26458333)"><flowRegion
         id="flowRegion4559"><rect
           id="rect4561"
           width="182.74944"
           height="55.879704"
           x="-942.25726"
           y="809.7644" /></flowRegion><flowPara
         id="flowPara4563" /></flowRoot>    <flowRoot
       xml:space="preserve"
       id="flowRoot4565"
       style="font-style:normal;font-weight:normal;font-size:40px;line-height:1.25;font-family:sans-serif;letter-spacing:0px;word-spacing:0px;fill:#000000;fill-opacity:1;stroke:none"><flowRegion
         id="flowRegion4567"><rect
           id="rect4569"
           width="173.62622"
           height="51.032993"
           x="-937.69562"
           y="810.61969" /></flowRegion><flowPara
         id="flowPara4571" /></flowRoot>    <flowRoot
       xml:space="preserve"
       id="flowRoot4581"
       style="font-style:normal;font-weight:normal;font-size:40px;line-height:1.25;font-family:sans-serif;letter-spacing:0px;word-spacing:0px;fill:#000000;fill-opacity:1;stroke:none"
       transform="scale(0.26458333)"><flowRegion
         id="flowRegion4583"><rect
           id="rect4585"
           width="179.04314"
           height="41.339577"
           x="-939.69135"
           y="816.60681" /></flowRegion><flowPara
         id="flowPara4587">Qu</flowPara></flowRoot>    <path
       style="opacity:1;fill:#000000;fill-opacity:1;stroke:none;stroke-width:0.36568192;stroke-linejoin:round;stroke-miterlimit:4;stroke-dasharray:none;stroke-opacity:1;paint-order:stroke fill markers"
       d="m 0.80046773,292.69327 v 3.24476 H 6.0921344 v -3.24476 z M 3.45922,293.29581 a 0.5016542,0.48668574 0 0 1 0.034106,5.2e-4 0.5016542,0.48668574 0 0 1 0.4728393,0.51211 l -5.168e-4,0.006 a 0.5016542,0.48668574 0 0 1 -0.3684529,0.43667 l 0.053227,0.24908 0.1772502,0.82527 -0.4237469,-0.003 -0.4242634,-0.003 0.2470132,-0.82217 0.076481,-0.25476 A 0.5016542,0.48668574 0 0 1 2.9641594,293.75367 0.5016542,0.48668574 0 0 1 3.45922,293.29581 Z"
       id="rect876"
       inkscape:connector-curvature="0" />
    <path
       style="opacity:1;fill:#000000;fill-opacity:1;stroke:none;stroke-width:0.54196137;stroke-linejoin:round;stroke-miterlimit:4;stroke-dasharray:none;stroke-opacity:1;paint-order:stroke fill markers"
       d="m 7.0889718,289.71929 a 2.3443772,3.0360741 0 0 0 -1.1162104,0.40824 2.3443772,3.0360741 0 0 0 -1.1689207,2.6355 l 0.56534,-0.002 a 1.7350831,2.5063676 0 0 1 0.8640297,-2.14354 1.7350831,2.5063676 0 0 1 1.7363268,-0.003 1.7350831,2.5063676 0 0 1 0.8681637,2.14044 l 0.6552564,5.2e-4 a 2.3443772,3.0360741 0 0 0 -1.1740871,-2.63137 2.3443772,3.0360741 0 0 0 -1.2298984,-0.40462 z"
       id="path878"
       inkscape:connector-curvature="0" />
    <text
       xml:space="preserve"
       style="font-style:normal;font-weight:normal;font-size:4.53467655px;line-height:1.25;font-family:sans-serif;letter-spacing:0px;word-spacing:0px;fill:#000000;fill-opacity:1;stroke:none;stroke-width:0.11336691"
       x="8.2734919"
       y="300.84604"
       id="text891"
       transform="scale(1.016613,0.98365848)"><tspan
         sodipodi:role="line"
         id="tspan889"
         x="8.2734919"
         y="300.84604"
         style="font-style:normal;font-variant:normal;font-weight:bold;font-stretch:normal;font-size:4.53461266px;font-family:sans-serif;-inkscape-font-specification:'sans-serif, Bold';font-variant-ligatures:normal;font-variant-caps:normal;font-variant-numeric:normal;font-feature-settings:normal;text-align:start;writing-mode:lr-tb;text-anchor:start;stroke-width:0.11336691">Public</tspan></text>
  </g>
</svg>
